0
SECTION
2
HEADER
9
$INSUNITS
70
4
9
$ACADVER
1
AC1014
9
$HANDSEED
5
FFFF
0
ENDSEC
0
SECTION
2
TABLES
0
TABLE
2
VPORT
5
8
100
AcDbSymbolTable
0
ENDTAB
0
TABLE
2
LTYPE
5
5
100
AcDbSymbolTable
0
LTYPE
5
14
100
AcDbSymbolTableRecord
100
AcDbLinetypeTableRecord
2
BYBLOCK
70
0
0
LTYPE
5
15
100
AcDbSymbolTableRecord
100
AcDbLinetypeTableRecord
2
BYLAYER
70
0
0
LTYPE
5
16
100
AcDbSymbolTableRecord
100
AcDbLinetypeTableRecord
2
DASHED
70
0
3
Dashed __ __ __ __ __ __ __ __ __ __ __ __ __ _
72
65
73
2
40
0.75
49
0.5
74
0
49
-0.25
74
0
0
ENDTAB
0
TABLE
2
LAYER
5
2
100
AcDbSymbolTable
70
2
0
LAYER
5
50
100
AcDbSymbolTableRecord
100
AcDbLayerTableRecord
2
0
70
0
62
7
6
CONTINUOUS
0
ENDTAB
0
TABLE
2
STYLE
5
3
100
AcDbSymbolTable
70
1
0
STYLE
5
11
100
AcDbSymbolTableRecord
100
AcDbTextStyleTableRecord
2
STANDARD
70
0
0
ENDTAB
0
TABLE
2
VIEW
5
6
100
AcDbSymbolTable
70
0
0
ENDTAB
0
TABLE
2
UCS
5
7
100
AcDbSymbolTable
70
0
0
ENDTAB
0
TABLE
2
APPID
5
9
100
AcDbSymbolTable
70
2
0
APPID
5
12
100
AcDbSymbolTableRecord
100
AcDbRegAppTableRecord
2
ACAD
70
0
0
ENDTAB
0
TABLE
2
DIMSTYLE
5
A
100
AcDbSymbolTable
70
1
0
ENDTAB
0
TABLE
2
BLOCK_RECORD
5
1
100
AcDbSymbolTable
70
1
0
BLOCK_RECORD
5
1F
100
AcDbSymbolTableRecord
100
AcDbBlockTableRecord
2
*MODEL_SPACE
0
BLOCK_RECORD
5
1B
100
AcDbSymbolTableRecord
100
AcDbBlockTableRecord
2
*PAPER_SPACE
0
ENDTAB
0
ENDSEC
0
SECTION
2
BLOCKS
0
BLOCK
5
20
100
AcDbEntity
100
AcDbBlockBegin
2
*MODEL_SPACE
0
ENDBLK
5
21
100
AcDbEntity
100
AcDbBlockEnd
0
BLOCK
5
1C
100
AcDbEntity
100
AcDbBlockBegin
2
*PAPER_SPACE
0
ENDBLK
5
1D
100
AcDbEntity
100
AcDbBlockEnd
0
ENDSEC
0
SECTION
2
ENTITIES
0
LWPOLYLINE
5
100
100
AcDbEntity
8
0
100
AcDbPolyline
90
5
70
1
43
0.0
10
102.99999999999997
20
62.5
10
103
20
182.50000000000006
42
-0.41421356237309542
10
133
20
212.50000000000003
10
228.00000000000006
20
212.5
10
228
20
62.5
0
LWPOLYLINE
5
101
100
AcDbEntity
8
0
100
AcDbPolyline
90
4
70
1
43
0.0
10
273.45050875601572
20
244.90287426229028
10
275.45050875601572
20
244.90287426229028
10
275.45050875601572
20
224.90287426229028
10
273.45050875601572
20
224.90287426229028
0
LINE
5
102
100
AcDbEntity
8
0
100
AcDbLine
10
303.45050875601572
20
249.90287426229028
30
0
11
303.45050875601572
21
219.90287426229031
31
0
0
ARC
5
103
100
AcDbEntity
8
0
100
AcDbCircle
10
283.45050875601578
20
249.90287426229031
30
0
40
19.999999999999964
210
-0
220
0
230
1
100
AcDbArc
50
0
51
90.000000000000171
0
LINE
5
104
100
AcDbEntity
8
0
100
AcDbLine
10
153.45050875601569
20
219.90287426229031
30
0
11
153.45050875601569
21
249.90287426229028
31
0
0
LINE
5
105
100
AcDbEntity
8
0
100
AcDbLine
10
153.45050875601572
20
218.90287426229031
30
0
11
303.45050875601572
21
218.90287426229031
31
0
0
LINE
5
106
100
AcDbEntity
8
0
100
AcDbLine
10
173.45050875601569
20
269.90287426229025
30
0
11
283.45050875601572
21
269.90287426229025
31
0
0
ARC
5
107
100
AcDbEntity
8
0
100
AcDbCircle
10
173.45050875601567
20
249.90287426229031
30
0
40
20
210
0
220
-0
230
1
100
AcDbArc
50
89.999999999999929
51
180
0
LINE
5
108
100
AcDbEntity
8
0
100
AcDbLine
10
233.2433391899753
20
61.689891812921402
30
0
11
358.24333918997456
21
61.689891812921246
31
0
0
LINE
5
109
100
AcDbEntity
8
0
100
AcDbLine
10
233.24333918997542
20
211.68989181292048
30
0
11
233.2433391899753
21
61.689891812921402
31
0
0
LINE
5
110
100
AcDbEntity
8
0
100
AcDbLine
10
328.2433391899749
20
211.68989181292039
30
0
11
233.24333918997542
21
211.68989181292048
31
0
0
LINE
5
111
100
AcDbEntity
8
0
100
AcDbLine
10
358.24333918997456
20
61.689891812921246
30
0
11
358.24333918997468
21
181.68989181292059
31
0
0
ARC
5
112
100
AcDbEntity
8
0
100
AcDbCircle
10
328.24333918997496
20
181.68989181292065
30
0
40
29.999999999999716
210
-0
220
0
230
1
100
AcDbArc
50
0
51
90.000000000000114
0
ARC
5
113
100
AcDbEntity
8
0
100
AcDbCircle
10
173.45050875601567
20
34.902874262290311
30
0
40
20
210
0
220
-0
230
1
100
AcDbArc
50
89.999999999999929
51
180
0
ARC
5
114
100
AcDbEntity
8
0
100
AcDbCircle
10
283.45050875601578
20
34.902874262290311
30
0
40
19.999999999999964
210
-0
220
0
230
1
100
AcDbArc
50
0
51
90.000000000000171
0
LWPOLYLINE
5
115
100
AcDbEntity
8
0
100
AcDbPolyline
90
4
70
1
43
0.0
10
273.45050875601572
20
29.902874262290275
10
275.45050875601572
20
29.902874262290275
10
275.45050875601572
20
9.9028742622902755
10
273.45050875601572
20
9.9028742622902755
0
LINE
5
116
100
AcDbEntity
8
0
100
AcDbLine
10
173.45050875601569
20
54.902874262290275
30
0
11
283.45050875601572
21
54.902874262290275
31
0
0
LINE
5
117
100
AcDbEntity
8
0
100
AcDbLine
10
153.45050875601569
20
4.902874262290311
30
0
11
153.45050875601569
21
34.902874262290275
31
0
0
LINE
5
118
100
AcDbEntity
8
0
100
AcDbLine
10
153.45050875601572
20
3.9028742622902968
30
0
11
303.45050875601572
21
3.9028742622902968
31
0
0
LINE
5
119
100
AcDbEntity
8
0
100
AcDbLine
10
303.45050875601572
20
34.902874262290275
30
0
11
303.45050875601572
21
4.902874262290311
31
0
0
ENDSEC
0
SECTION
2
OBJECTS
0
DICTIONARY
5
C
100
AcDbDictionary
3
ACAD_GROUP
350
D
3
ACAD_MLINESTYLE
350
17
0
DICTIONARY
5
D
100
AcDbDictionary
0
DICTIONARY
5
1A
330
C
100
AcDbDictionary
0
DICTIONARY
5
17
100
AcDbDictionary
0
ENDSEC
0
EOF
